<?xml version="1.0" standalone="no"?>
<!DOCTYPE svg PUBLIC "-//W3C//DTD SVG 1.1//EN" "http://www.w3.org/Graphics/SVG/1.1/DTD/svg11.dtd" >
<svg xmlns="http://www.w3.org/2000/svg">
<metadata>Generated by IcoMoon</metadata>
<defs>
<font id="icomoon" horiz-adv-x="1024">
<font-face units-per-em="1024" ascent="960" descent="-64" />
<missing-glyph horiz-adv-x="1024" />
<glyph unicode="&#x20;" horiz-adv-x="512" d="" />
<glyph unicode="&#xe900;" glyph-name="down" d="M1013.768 685.029l-51.299 51.295c-6.836 6.85-14.71 10.264-23.612 10.264-8.88 0-16.751-3.414-23.587-10.264l-403.265-403.244-403.247 403.233c-6.839 6.85-14.71 10.264-23.601 10.264-8.895 0-16.765-3.414-23.601-10.264l-51.292-51.299c-6.85-6.836-10.264-14.706-10.264-23.601 0-8.888 3.425-16.758 10.264-23.594l478.14-478.151c6.836-6.839 14.71-10.257 23.601-10.257s16.751 3.418 23.583 10.257l478.18 478.151c6.836 6.839 10.232 14.71 10.232 23.594 0 8.895-3.396 16.765-10.232 23.615z" />
<glyph unicode="&#xe901;" glyph-name="facebook" d="M767.965 959.787l-132.79 0.213c-149.185 0-245.595-98.913-245.595-252.008v-116.192h-133.514c-11.537 0-20.88-9.353-20.88-20.891v-168.35c0-11.537 9.353-20.88 20.88-20.88h133.514v-424.8c0-11.537 9.343-20.88 20.88-20.88h174.198c11.537 0 20.88 9.353 20.88 20.88v424.8h156.109c11.537 0 20.88 9.343 20.88 20.88l0.064 168.35c0 5.54-2.205 10.845-6.115 14.765s-9.236 6.125-14.776 6.125h-156.163v98.498c0 47.342 11.282 71.375 72.952 71.375l89.453 0.032c11.527 0 20.869 9.353 20.869 20.88v156.322c0 11.516-9.332 20.859-20.848 20.88z" />
<glyph unicode="&#xe902;" glyph-name="twitter" d="M1024 765.477c-37.689-16.7-78.129-28.026-120.618-33.083 43.384 25.98 76.594 67.187 92.334 116.139-40.696-24.059-85.616-41.529-133.48-50.999-38.328 40.888-92.846 66.356-153.316 66.356-116.010 0-210.072-94.062-210.072-210.009 0-16.444 1.856-32.505 5.44-47.864-174.559 8.768-329.345 92.399-432.941 219.481-18.109-30.971-28.411-67.059-28.411-105.581 0-72.883 37.113-137.191 93.423-174.815-34.426 1.151-66.804 10.621-95.15 26.363v-2.624c0-101.741 72.435-186.652 168.48-205.978-17.597-4.735-36.153-7.359-55.35-7.359-13.565 0-26.683 1.344-39.544 3.904 26.746-83.505 104.301-144.228 196.188-145.893-71.859-56.31-162.466-89.776-260.879-89.776-16.956 0-33.658 1.024-50.102 2.88 92.975-59.702 203.354-94.511 321.988-94.511 386.423 0 597.648 320.069 597.648 597.648l-0.704 27.195c41.271 29.437 76.976 66.421 105.067 108.526z" />
<glyph unicode="&#xe903;" glyph-name="null" d="M787.692 684.308c-21.701 0-39.385 17.684-39.385 39.385v78.769c0 21.701 17.684 39.385 39.385 39.385h78.769c21.701 0 39.385-17.684 39.385-39.385v-78.769c0-21.701-17.684-39.385-39.385-39.385h-78.769zM512 598.134c-28.593 0-54.981-8.389-77.706-22.174 7.089 2.206 14.454 3.663 22.213 3.663 42.063 0 76.13-34.068 76.13-76.17 0-41.984-34.068-76.13-76.13-76.13s-76.13 34.107-76.13 76.13c0 7.838 1.536 15.202 3.702 22.252-13.863-22.725-22.213-49.113-22.213-77.706 0-82.983 67.151-150.174 150.174-150.174 82.905 0 150.174 67.151 150.174 150.174s-67.308 150.134-150.213 150.134zM512 684.308c130.481 0 236.308-105.787 236.308-236.308s-105.866-236.308-236.308-236.308c-130.481 0-236.308 105.787-236.308 236.308s105.826 236.308 236.308 236.308zM512 763.077c-173.726 0-315.077-141.351-315.077-315.077s141.351-315.077 315.077-315.077 315.077 141.351 315.077 315.077-141.351 315.077-315.077 315.077v0zM832 960h-640c-106.063 0-192-85.937-192-192v-640c0-106.063 85.937-192 192-192h640c106.063 0 192 85.937 192 192v640c0 106.063-85.937 192-192 192zM945.231 605.538h-257.457c37.534-41.866 60.534-96.926 60.534-157.538 0-130.521-105.866-236.308-236.308-236.308-130.481 0-236.308 105.787-236.308 236.308 0 60.613 23.001 115.712 60.534 157.538h-257.457v162.462c0 62.425 50.806 113.231 113.231 113.231h640c62.464 0 113.231-50.806 113.231-113.231v-162.462z" />
<glyph unicode="&#xe904;" glyph-name="linkedin" d="M1024 337.332v-378.579h-219.476v353.224c0 88.733-31.745 149.29-111.188 149.29-60.645 0-96.735-40.811-112.612-80.288-5.79-14.113-7.28-33.757-7.28-53.512v-368.714h-219.55c0 0 2.957 598.246 0 660.229h219.529v-93.585c-0.445-0.7-1.024-1.455-1.443-2.133h1.443v2.133c29.167 44.922 81.255 109.095 197.845 109.095 144.447 0.002 252.733-94.363 252.733-297.16zM124.235 937.245c-75.108 0-124.235-49.265-124.235-114.050 0-63.373 47.705-114.133 121.321-114.133h1.467c76.562 0 124.177 50.75 124.177 114.133-1.443 64.785-47.615 114.050-122.73 114.050zM13.039-41.247h219.467v660.229h-219.467v-660.229z" />
<glyph unicode="&#xe905;" glyph-name="search" d="M767.998 576c0 212.059-171.933 384-383.996 384-212.059 0-384-171.942-384-384s171.942-383.992 384-383.992c212.063 0 383.996 171.933 383.996 383.992zM384.002 288.011c-158.813 0-287.998 129.174-287.998 287.987s129.185 287.998 287.998 287.998c158.809 0 288.004-129.185 288.004-287.998s-129.195-287.987-288.004-287.987zM995.866 99.865l-234.921 234.94c-35.003-54.438-81.327-100.738-135.765-135.744l234.94-234.94c37.506-37.498 98.318-37.498 135.744 0 37.508 37.437 37.508 98.248 0.002 135.744z" />
<glyph unicode="&#xe906;" glyph-name="cart" d="M1002.878 734.515h-597.126c-19.443 0-30.51-15.032-24.744-33.605l94.463-276.712c4.653-14.931 21.122-27.030 36.761-27.030h391.488c15.639 0 32.088 12.099 36.701 27.030l82.324 283.247c4.694 14.951-4.188 27.070-19.868 27.070zM549.075 78.393c0-49.332-39.992-89.324-89.324-89.324s-89.324 39.992-89.324 89.324c0 49.332 39.992 89.324 89.324 89.324s89.324-39.992 89.324-89.324zM927.048 77.28c0-49.332-39.992-89.324-89.324-89.324s-89.324 39.992-89.324 89.324c0 49.332 39.992 89.324 89.324 89.324s89.324-39.992 89.324-89.324zM944.974 306.265h-522.409l-209.138 601.779h-162.847c-27.94 0-50.58-22.64-50.58-50.58s22.64-50.58 50.58-50.58h90.902l209.138-601.779h594.354c27.94 0 50.58 22.64 50.58 50.58s-22.64 50.58-50.58 50.58z" />
<glyph unicode="&#xe907;" glyph-name="islam" d="M782 416v60h-49.422c4.305 27.797 0.703 56.758-10.961 83.641-17.516 40.398-51.117 70.563-92.156 82.742-26.242 7.797-52.258 24.859-79.563 52.156l-7.898 7.883v82.734c34.922 12.383 60 45.742 60 84.844h-60c0-16.539-13.461-30-30-30s-30 13.461-30 30 13.461 30 30 30v60c-49.617 0-90-40.383-90-90 0-39.102 25.078-72.461 60-84.844v-82.734l-7.898-7.883c-27.305-27.297-53.32-44.359-79.563-52.156-41.039-12.18-74.641-42.344-92.156-82.742-11.664-26.883-15.266-55.844-10.961-83.641h-49.422v-60h60v-180h-60v-60h60v-180h-60v-60h540v60h-60v180h60v60h-60v180zM542-4h-60v30c0 16.539 13.461 30 30 30s30-13.461 30-30zM662-4h-60v30c0 49.617-40.383 90-90 90s-90-40.383-90-90v-30h-60v180h300zM482 236v30c0 16.539 13.461 30 30 30s30-13.461 30-30v-30zM662 236h-60v30c0 49.617-40.383 90-90 90s-90-40.383-90-90v-30h-60v180h300zM671.398 476h-318.797c-5.141 19.398-3.563 40.422 4.82 59.758 10.438 24.086 30.195 41.984 54.195 49.102 34.484 10.242 67.359 30.797 100.383 62.781 33-31.984 65.898-52.539 100.383-62.781 24-7.117 43.758-25.016 54.195-49.102 8.383-19.336 9.961-40.359 4.82-59.758z" />
<glyph unicode="&#xe908;" glyph-name="islam-1" d="M717.253 383.927h-18.071v36.2c0 99.724-119.898 175.005-167.771 201.090-0.157 3.399-1.226 6.686-3.13 9.507 8.187 5.242 13.269 14.181 13.269 23.862 0 9.678-5.083 18.62-13.269 23.869 2.062 3.052 3.194 6.645 3.194 10.343 0 6.5-3.377 12.426-8.935 15.884l-7.006 55.592c-0.226 1.781-1.739 3.118-3.534 3.118s-3.311-1.337-3.534-3.118l-7.006-55.592c-5.558-3.458-8.935-9.384-8.935-15.884 0-3.7 1.131-7.294 3.192-10.343-8.184-5.246-13.267-14.188-13.267-23.869s5.083-18.62 13.267-23.862c-1.905-2.822-2.971-6.109-3.128-9.507-47.873-26.085-167.771-101.365-167.771-201.090v-36.2h-18.071c-4.394 0-7.956-3.56-7.956-7.956v-77.561c0-4.394 3.563-7.956 7.956-7.956h9.039v-157.518h71.217v7.161c0 72.329 124.994 119.727 124.994 119.727s125.004-47.398 125.004-119.727v-7.161h71.215v157.518h9.037c4.394 0 7.956 3.563 7.956 7.956v77.561c0 4.396-3.563 7.956-7.956 7.956zM380.284 315.71h-22.971v25.945c0 10.279 6.384 17.015 11.486 17.015 5.104 0 11.486-6.736 11.486-17.015v-25.945zM451.884 315.71h-22.969v25.945c0 10.279 6.379 17.015 11.483 17.015 5.106 0 11.486-6.736 11.486-17.015v-25.945zM523.481 315.71h-22.964v25.945c0 10.279 6.377 17.015 11.483 17.015 5.104 0 11.481-6.736 11.481-17.015v-25.945zM595.080 315.71h-22.966v25.945c0 10.279 6.379 17.015 11.483 17.015 5.102 0 11.483-6.736 11.483-17.015v-25.945zM666.684 315.71h-22.973v25.945c0 10.279 6.384 17.015 11.486 17.015 5.106 0 11.488-6.736 11.488-17.015v-25.945zM1018.545 304.685h-12.388v24.816c0 67.576-80.306 118.777-113.858 137.221 0.002 0.021 0.005 0.043 0.005 0.062 0 2.385-0.629 4.712-1.793 6.766 5.394 3.862 8.697 10.032 8.697 16.684 0 6.655-3.308 12.825-8.7 16.687 1.164 2.057 1.796 4.382 1.796 6.766 0 4.667-2.33 8.935-6.196 11.547l-4.741 37.599c-0.226 1.781-1.739 3.118-3.534 3.118s-3.311-1.337-3.534-3.118l-4.733-37.596c-3.869-2.608-6.199-6.878-6.199-11.547 0-2.385 0.629-4.71 1.791-6.764-5.394-3.862-8.704-10.034-8.704-16.689s3.308-12.823 8.702-16.684c-1.159-2.054-1.788-4.377-1.788-6.766 0-0.021 0.002-0.040 0.002-0.062-33.547-18.442-113.856-69.645-113.856-137.223v-24.816h-12.395c-3.014 0-5.455-2.442-5.455-5.453v-53.176c0-3.012 2.442-5.453 5.455-5.453h6.194v-107.994h48.828v4.912c0 49.588 85.69 82.080 85.69 82.080s85.698-32.495 85.698-82.080v-4.912h48.828v107.994h6.194c3.014 0 5.455 2.442 5.455 5.453v53.176c-0.005 3.012-2.449 5.453-5.46 5.453zM787.527 257.916h-15.746v17.791c0 7.047 4.375 11.659 7.876 11.659 3.498 0 7.871-4.612 7.871-11.659v-17.791zM836.616 257.916h-15.746v17.791c0 7.047 4.377 11.659 7.873 11.659 3.501 0 7.873-4.612 7.873-11.659v-17.791zM885.703 257.916h-15.744v17.791c0 7.047 4.37 11.659 7.871 11.659s7.873-4.612 7.873-11.659v-17.791zM934.785 257.916h-15.744v17.791c0 7.047 4.372 11.659 7.876 11.659 3.498 0 7.868-4.612 7.868-11.659v-17.791zM983.874 257.916h-15.746v17.791c0 7.047 4.377 11.659 7.873 11.659 3.498 0 7.873-4.612 7.873-11.659v-17.791zM286.885 304.685h-12.398v24.816c0 67.581-80.311 118.784-113.856 137.223 0 0.021 0.002 0.040 0.002 0.059 0 2.387-0.627 4.712-1.786 6.766 5.394 3.862 8.702 10.032 8.702 16.684 0 6.655-3.308 12.827-8.704 16.689 1.161 2.054 1.788 4.38 1.788 6.764 0 4.669-2.33 8.94-6.196 11.547l-4.736 37.596c-0.226 1.781-1.739 3.118-3.534 3.118s-3.311-1.337-3.534-3.118l-4.743-37.599c-3.867-2.613-6.199-6.88-6.199-11.547 0-2.382 0.632-4.707 1.796-6.766-5.394-3.862-8.7-10.034-8.7-16.687s3.306-12.823 8.697-16.684c-1.164-2.057-1.793-4.382-1.793-6.766 0-0.021 0.002-0.043 0.002-0.064-33.552-18.444-113.856-69.645-113.856-137.219v-24.816h-12.386c-3.012 0-5.453-2.442-5.453-5.453v-53.176c0-3.012 2.442-5.453 5.453-5.453h6.194v-107.994h48.83v4.912c0 49.588 85.688 82.080 85.688 82.080s85.695-32.495 85.695-82.080v-4.912h48.825v107.994h6.196c3.012 0 5.453 2.442 5.453 5.453v53.176c0.005 3.014-2.437 5.455-5.451 5.455zM55.87 257.916h-15.744v17.791c0 7.047 4.37 11.659 7.868 11.659s7.876-4.612 7.876-11.659v-17.791zM104.954 257.916h-15.742v17.791c0 7.047 4.372 11.659 7.868 11.659 3.503 0 7.873-4.612 7.873-11.659v-17.791zM154.038 257.916h-15.746v17.791c0 7.047 4.377 11.659 7.876 11.659 3.501 0 7.871-4.612 7.871-11.659v-17.791zM203.132 257.916h-15.751v17.791c0 7.047 4.375 11.659 7.873 11.659s7.878-4.612 7.878-11.659v-17.791zM252.217 257.916h-15.746v17.791c0 7.047 4.372 11.659 7.868 11.659 3.506 0 7.878-4.612 7.878-11.659v-17.791z" />
<glyph unicode="&#xe909;" glyph-name="ring" d="M548.426 633.844l190.074 176.678c0.156 0.146 0.296 0.302 0.446 0.454 0.106 0.108 0.214 0.212 0.318 0.322 0.42 0.45 0.814 0.918 1.172 1.406 0.044 0.062 0.084 0.128 0.128 0.19 0.338 0.478 0.644 0.97 0.922 1.476 0.032 0.058 0.074 0.108 0.104 0.168 0.018 0.034 0.030 0.072 0.048 0.106 0.292 0.556 0.548 1.126 0.766 1.71 0.038 0.102 0.070 0.206 0.106 0.308 0.184 0.522 0.34 1.054 0.466 1.592 0.022 0.092 0.050 0.184 0.070 0.276 0.126 0.588 0.212 1.182 0.268 1.78 0.012 0.136 0.020 0.27 0.030 0.406 0.038 0.564 0.052 1.13 0.026 1.696-0.002 0.050 0 0.098-0.002 0.148-0.032 0.61-0.11 1.218-0.216 1.824-0.022 0.124-0.046 0.248-0.070 0.372-0.24 1.202-0.626 2.382-1.162 3.52-0.062 0.13-0.124 0.258-0.19 0.386-0.282 0.556-0.586 1.104-0.94 1.632l-82.532 122.902c-0.088 0.13-0.194 0.244-0.284 0.372-0.232 0.324-0.468 0.64-0.722 0.942-0.148 0.176-0.304 0.342-0.46 0.51-0.286 0.31-0.576 0.614-0.884 0.9-0.142 0.13-0.29 0.25-0.436 0.374-0.344 0.294-0.692 0.58-1.058 0.842-0.12 0.086-0.248 0.162-0.372 0.244-0.41 0.274-0.824 0.538-1.256 0.77-0.078 0.042-0.158 0.074-0.236 0.114-2.138 1.108-4.532 1.736-7.022 1.736h-266.886c-0.68 0-1.354-0.046-2.020-0.134-4.394-0.532-8.378-2.944-10.88-6.67l-82.528-122.902c-0.356-0.528-0.66-1.078-0.942-1.634-0.064-0.128-0.128-0.254-0.188-0.384-0.536-1.138-0.924-2.32-1.164-3.522-0.024-0.122-0.048-0.244-0.070-0.368-0.106-0.606-0.184-1.214-0.216-1.826-0.002-0.048 0-0.098-0.002-0.148-0.024-0.568-0.012-1.134 0.026-1.698 0.010-0.134 0.018-0.266 0.030-0.402 0.056-0.598 0.142-1.194 0.268-1.782 0.020-0.092 0.048-0.184 0.070-0.276 0.126-0.538 0.282-1.070 0.466-1.594 0.036-0.102 0.066-0.204 0.106-0.304 0.22-0.584 0.476-1.154 0.768-1.712 0.018-0.034 0.028-0.072 0.048-0.106 0.032-0.058 0.072-0.108 0.104-0.168 0.278-0.506 0.584-0.998 0.922-1.476 0.044-0.062 0.084-0.128 0.128-0.19 0.358-0.488 0.75-0.956 1.172-1.406 0.104-0.11 0.21-0.216 0.318-0.322 0.15-0.152 0.29-0.308 0.446-0.454l190.074-176.678c-153.066-18.080-272.192-148.608-272.192-306.456 0-170.172 138.444-308.616 308.616-308.616s308.616 138.444 308.616 308.616c0 157.848-119.126 288.376-272.192 306.456zM545.514 672.998l44.468 133.424h99.072l-143.54-133.424zM512.040 669.506l-45.4 136.914h91.030l-45.63-136.914zM646.916 915.094l52.388-78.016h-94.734l42.346 78.016zM619.756 929.322l-40.96-75.466-40.96 75.466h81.92zM553.020 837.078h-81.87l40.936 75.418 40.934-75.418zM486.336 929.322l-40.96-75.468-40.96 75.468h81.92zM377.178 915.234l42.422-78.156h-94.902l52.48 78.156zM334.946 806.42h99.394l44.284-133.552-143.678 133.552zM512 49.432c-153.266 0-277.958 124.692-277.958 277.958s124.692 277.958 277.958 277.958 277.958-124.692 277.958-277.958-124.692-277.958-277.958-277.958zM665.636 687.438c-7.788 3.326-16.794-0.294-20.118-8.076-3.326-7.786 0.29-16.792 8.076-20.118 133.12-56.868 219.138-187.128 219.138-331.856 0-198.908-161.824-360.732-360.732-360.732s-360.732 161.826-360.732 360.734c0 145 86.242 275.358 219.71 332.098 7.79 3.314 11.42 12.312 8.11 20.104-3.316 7.794-12.316 11.422-20.104 8.11-144.808-61.564-238.374-202.994-238.374-360.312 0-215.814 175.576-391.39 391.39-391.39s391.39 175.576 391.39 391.39c0 157.024-93.324 298.35-237.754 360.048z" />
<glyph unicode="&#xe90a;" glyph-name="youth" d="M353.461 564.187h24.688c8.281 0 15 6.711 15 15s-6.719 15-15 15h-19.688v62.188c0 8.289-6.719 15-15 15-8.289 0-15-6.711-15-15v-67.188c0-13.789 11.211-25 25-25zM432.609 512.602c5.883 5.828 5.93 15.328 0.102 21.211s-15.328 5.93-21.211 0.102c-27.953-27.68-73.438-27.68-101.391 0-5.883 5.828-15.383 5.789-21.211-0.102-5.828-5.883-5.781-15.383 0.102-21.211 19.797-19.609 45.797-29.406 71.805-29.406 26 0 52.008 9.805 71.805 29.406zM294.461 705.687c2.922-2.898 6.734-4.344 10.555-4.344 3.859 0 7.719 1.484 10.656 4.445 5.828 5.891 5.781 15.383-0.109 21.211-27.797 27.531-73.023 27.531-100.828 0-5.883-5.828-5.93-15.32-0.102-21.211s15.328-5.93 21.211-0.102c16.164 16 42.461 16 58.617 0zM268.336 687.609c-8.281 0-15-6.719-15-15v-40.719c0-8.281 6.719-15 15-15s15 6.719 15 15v40.719c0 8.281-6.719 15-15 15zM453.273 616.891c8.289 0 15 6.711 15 15v40.711c0 8.289-6.711 15-15 15-8.281 0-15-6.711-15-15v-40.711c0-8.281 6.719-15 15-15zM902.273 475.102h10.898c30.234 0 54.828 24.414 54.828 54.422v34.273c0 20.914-11.953 39.102-29.43 48.203v100.852c0 89.172-72.594 161.727-161.813 161.727h-116.789c-21.336 0-41.703-4.188-60.367-11.719-7.648 54.797-55.172 97.141-112.508 97.141h-334.75c-17.336 0-31.438-14.031-31.438-31.273v-228.523c-15.766-10.219-26.211-27.883-26.211-47.922v-36.711c0-31.539 25.852-57.203 57.625-57.203h12.539c12.266-64.805 56.555-118.539 115.906-144.43v-3.125h-83.727c-78.875 0-143.039-63.93-143.039-142.516v-302.469c0-16.445 13.406-29.828 29.891-29.828h840.047c13.422 0 24.344 10.922 24.344 24.344v131.656c0 8.289-6.719 15-15 15-8.289 0-15-6.711-15-15v-126h-22.281v88.234c0 8.289-6.711 15-15 15s-15-6.711-15-15v-88.234h-292v88.234c0 8.289-6.711 15-15 15s-15-6.711-15-15v-88.234h-25.555v253.953c0 51.469 41.898 93.336 93.391 93.336h30.836c1.867-39.813 35.094-71.633 75.688-71.633s73.828 31.82 75.695 71.633h5.984c-9.352-11.32-8.742-28.148 1.844-38.734l11-11c3.25-3.25 7.133-5.625 11.383-7.016 1.375-4.188 3.711-8.086 6.953-11.32l11-11c3.25-3.25 7.133-5.625 11.383-7.016 1.375-4.188 3.711-8.086 6.953-11.32l11-11c5.445-5.445 12.688-8.445 20.391-8.445s14.938 3 20.383 8.445l5.953 5.945v-46.828c0-8.289 6.711-15 15-15 8.281 0 15 6.711 15 15v55.953c0 6.586-0.531 13.047-1.531 19.352l10.805 10.805c5.445 5.445 8.445 12.688 8.445 20.383 0 7.703-3 14.945-8.445 20.391l-69.672 69.672c-5.445 5.445-12.688 8.445-20.383 8.445-7.703 0-14.945-3-20.391-8.445l-17.391-17.391c-1.602 0.063-3.211 0.125-4.828 0.125h-24.836c52.234 25.18 90.945 73.719 102.219 131.813zM938 529.523c0-13.461-11.133-24.422-24.828-24.422h-7.602c0.047 1.695 0.078 3.391 0.078 5.094v78.023h7.523c13.695 0 24.828-10.953 24.828-24.414zM152.32 588.367c-15.234 0-27.625 12.203-27.625 27.203v36.711c0 15 12.391 27.203 27.625 27.203h9.109v-84.609c0-2.18 0.047-4.344 0.117-6.508zM191.43 594.875v197.25h65.57c8.281 0 15 6.711 15 15 0 8.281-6.719 15-15 15h-70.352c-13.906 0-25.219-11.273-25.219-25.125v-87.516h-9.109c-0.477 0-0.945-0.023-1.414-0.039v219.281c0 0.703 0.641 1.273 1.438 1.273h334.75c46 0 83.438-36.914 83.602-82.352-11.188-7.43-21.422-16.188-30.43-26.094-1.711 0.375-3.484 0.57-5.305 0.57h-203.961c-8.281 0-15-6.719-15-15 0-8.289 6.719-15 15-15h188.008c-10.055-17.789-16.82-37.656-19.508-58.781-27.922 20.969-68.008 18.867-93.461-6.344-5.891-5.828-5.938-15.328-0.109-21.211 5.836-5.891 15.328-5.938 21.219-0.102 16.156 16 42.453 16 58.617-0.008 2.922-2.891 6.734-4.336 10.547-4.336 0.617 0 1.234 0.047 1.844 0.125v-89.469c-17.477-9.109-29.438-27.289-29.438-48.203v-34.273c0-17.438 8.313-32.969 21.195-42.93-31.086-36.242-77.414-59.297-129.109-59.297-93.398 0-169.375 75.172-169.375 167.578zM310.766 403.602c15.992-4.117 32.766-6.305 50.039-6.305 17.281 0 34.047 2.211 50.047 6.32v-24.117c0-27.242-22.453-49.406-50.047-49.406s-50.039 22.164-50.039 49.406zM440.852 413.945c31.141 13.586 58.133 34.836 78.531 61.336 1.383-0.109 2.766-0.18 4.172-0.18h10.898c4.953-25.5 15.188-49.156 29.531-69.805-12.523 3.578-25.742 5.516-39.406 5.516h-83.727zM531.148 505.102h-7.602c-13.687 0-24.828 10.953-24.828 24.422v34.273c0 13.469 11.141 24.414 24.828 24.414h7.531v-78.023c0-1.695 0.031-3.391 0.070-5.086zM488.445 219.953v-253.953h-330.445v132c0 8.289-6.719 15-15 15s-15-6.711-15-15v-132h-44v302.297c0 62.039 50.711 112.508 113.039 112.508h83.727v-1.305c0-43.789 35.906-79.406 80.039-79.406 44.141 0 80.047 35.617 80.047 79.406v1.305h83.719c33.438 0 63.508-14.539 84.219-37.594-66.633-1.633-120.344-56.273-120.344-123.258zM718.359 271.656c-25.242 0-45.773 20.258-45.773 45.148v13.5c14.656-3.664 29.984-5.617 45.773-5.617s31.125 1.953 45.781 5.617v-13.5c0-24.891-20.539-45.148-45.781-45.148zM935.516 270.5l-43.578-43.578-8.539 8.539 16.289 16.297c5.859 5.852 5.859 15.352 0 21.211-5.859 5.852-15.359 5.852-21.219-0.008l-16.281-16.281-8.508 8.508 16.289 16.289c5.852 5.859 5.852 15.352 0 21.211-5.859 5.859-15.359 5.859-21.219 0l-16.289-16.289-8.539 8.547 43.578 43.578zM718.359 354.688c-86.727 0-157.281 69.758-157.281 155.508v102.781h88.961c20.070 0 39.711 3.656 58.367 10.859 7.727 2.984 11.57 11.672 8.586 19.398s-11.672 11.578-19.398 8.586c-15.195-5.867-31.195-8.844-47.555-8.844h-98.352c-11.367 0-20.609-9.242-20.609-20.602v-4.156h-2.922v94.633c0 72.633 59.133 131.727 131.813 131.727h116.789c72.68 0 131.813-59.094 131.813-131.727v-94.633h-2.922v80.734c0 13.484-11.016 24.453-24.555 24.453h-96.695c-7.602 0-14.555-4.156-18.164-10.867-4.367-8.141-9.586-15.836-15.523-22.859-5.344-6.336-4.539-15.797 1.789-21.141s15.797-4.547 21.133 1.789c6.070 7.188 11.531 14.93 16.273 23.078h85.742v-183.211c0-85.75-70.555-155.508-157.289-155.508zM712.156 487.836h22.414c8.281 0 15 6.711 15 15s-6.719 15-15 15h-17.414v32.875c0 8.289-6.719 15-15 15-8.289 0-15-6.711-15-15v-37.875c0-13.789 11.211-25 25-25zM770.594 453.977c-28.805-28.516-75.664-28.508-104.461-0.008-5.891 5.828-15.391 5.789-21.211-0.102-5.828-5.891-5.781-15.391 0.102-21.219 20.219-20.016 46.773-30.016 73.336-30.016 26.555 0 53.125 10.008 73.336 30.016 5.891 5.828 5.938 15.328 0.117 21.211-5.836 5.891-15.328 5.938-21.219 0.117zM646.953 536.539v38.023c0 8.289-6.711 15-15 15-8.281 0-15-6.711-15-15v-38.023c0-8.281 6.719-15 15-15 8.289 0 15 6.719 15 15zM804.766 589.562c-8.289 0-15-6.711-15-15v-38.023c0-8.281 6.711-15 15-15s15 6.719 15 15v38.023c0 8.289-6.719 15-15 15zM834.227 641.195h-54.195c-8.289 0-15-6.719-15-15 0-8.289 6.711-15 15-15h54.195c8.289 0 15 6.711 15 15 0 8.281-6.711 15-15 15zM821 189c-32.531 0-59-26.469-59-59s26.469-59 59-59 59 26.469 59 59-26.469 59-59 59zM821 101c-15.992 0-29 13.008-29 29s13.008 29 29 29 29-13.008 29-29-13.008-29-29-29z" />
<glyph unicode="&#xe90b;" glyph-name="islam-2" d="M870.478 565.202c-7.164 4.375-16.523 2.102-20.899-5.070-8.82-14.461-24.774-23.445-41.641-23.445-1.195 0-2.266 0.031-3.336 0.102-25.547 1.703-45.555 23.070-45.555 48.641 0 1.18 0.031 2.266 0.109 3.313 1.695 25.547 23.055 45.555 48.617 45.555 1.188 0 2.25-0.031 3.305-0.109 18.242-1.211 34.117-12.359 41.445-29.086 3.375-7.695 12.344-11.195 20.031-7.828 7.695 3.367 11.203 12.336 7.828 20.031-11.211 25.586-34.742 43.125-62.125 46.711-2.266 12.242-5.289 24.344-9.031 36.18 33.86 24.352 43.195 71.367 20.477 106.938-22.672 35.508-69.149 46.82-105.454 26.469-9.188 8.445-18.875 16.328-28.977 23.578 12.422 39.75-8.258 82.899-47.711 97.743-39.406 14.828-83.344-3.914-100.25-41.883-20.414 2.023-41.125 2.023-61.539 0-16.906 37.969-60.852 56.711-100.25 41.883-19.813-7.453-35.531-22.172-44.258-41.453-8.102-17.883-9.281-37.703-3.453-56.289-10.102-7.25-19.797-15.125-28.984-23.578-16.961 9.523-36.578 12.469-55.735 8.25-20.672-4.555-38.328-16.883-49.719-34.719-22.711-35.57-13.375-82.586 20.477-106.938-3.742-11.844-6.766-23.945-9.039-36.188-19.086-2.508-36.406-11.727-49.203-26.344-13.938-15.922-20.836-36.32-19.43-57.43v-0.008c2.711-40.555 35.945-72.5 76.235-73.899 2.539-11.078 5.461-22.383 8.727-33.82-33.844-19.461-48.977-61.555-33.774-98.664v-0.008c12.258-29.883 41.039-49.195 73.336-49.195 6.797 0 13.492 0.883 20.016 2.602 5.719-10.414 11.633-20.524 17.703-30.25-19.344-20.813-26.227-50.602-17.43-78.094 2.563-8 11.133-12.398 19.125-9.844 8 2.563 12.406 11.125 9.844 19.125-5.945 18.563-0.32 38.844 14.336 51.672 8.898 7.789 20.297 12.086 32.117 12.086 14.086 0 27.484-6.078 36.758-16.68 7.797-8.891 12.086-20.305 12.086-32.133 0-14.086-6.063-27.477-16.633-36.719-4.539-3.969-9.688-7.031-15.297-9.094-9.492-3.508-20.133-3.945-30.016-1.195-8.102 2.25-16.477-2.492-18.727-10.578-2.25-8.094 2.484-16.477 10.578-18.727 6.938-1.93 14.109-2.906 21.305-2.906 9.422 0 18.641 1.641 27.383 4.867 7.25 2.672 14 6.375 20.18 11.016 7.766-5.359 15.602-10.117 23.453-14.25-0.234-3.766-0.227-7.586 0.094-11.453v-0.008c2.188-26.813 17.891-49.813 40.008-62.438-4.297-3.406-8.742-7.359-13.156-11.922-20.711-21.375-45.391-61.031-45.391-128.508 0-8.398 6.805-15.211 15.203-15.211s15.211 6.813 15.211 15.211c0 50.414 15.188 82.125 31.578 101.68-5.461-23.422-9.57-56.164-9.57-101.68 0-8.398 6.805-15.211 15.203-15.211s15.211 6.813 15.211 15.211c0 60.891 7.789 95.625 14.641 114.391 6.75-18.688 14.547-53.461 14.547-114.391 0-8.398 6.813-15.211 15.211-15.211s15.203 6.813 15.203 15.211c0 45.516-4.109 78.258-9.57 101.68 16.383-19.555 31.578-51.266 31.578-101.68 0-8.398 6.813-15.211 15.211-15.211s15.203 6.813 15.203 15.211c0 67.477-24.68 107.133-45.391 128.508-4.375 4.516-8.766 8.43-13.023 11.82 25.641 14.531 42.094 42.836 40.094 74.008 7.867 4.133 15.711 8.891 23.477 14.25 13.68-10.273 30.344-15.891 47.547-15.891 22.852 0 44.586 9.852 59.641 27.024 13.938 15.93 20.844 36.328 19.445 57.438-1.227 18.383-8.617 35.383-21.008 48.672 6.063 9.719 11.977 19.813 17.68 30.211 6.531-1.719 13.227-2.602 20.016-2.602 32.297 0 61.078 19.305 73.336 49.203 15.203 37.11 0.078 79.211-33.774 98.672 3.273 11.438 6.195 22.75 8.727 33.844 26.383 0.93 51.055 15.266 64.883 37.938 4.375 7.164 2.102 16.523-5.070 20.899zM762.868 813.273c16.117 0 31.906-7.953 41.203-22.516 14.484-22.68 7.82-52.922-14.852-67.407-7.859-5.023-16.93-7.672-26.227-7.672-16.781 0-32.172 8.422-41.188 22.547-7.016 10.977-9.336 24.039-6.531 36.766 2.813 12.734 10.406 23.609 21.391 30.617 8.125 5.188 17.211 7.664 26.203 7.664zM573.977 897.976c7.359 19.539 25.984 31.609 45.735 31.609 5.703 0 11.5-1.008 17.141-3.133 25.188-9.477 37.961-37.68 28.484-62.875-7.117-18.914-25.469-31.625-45.68-31.625-5.844 0-11.625 1.063-17.18 3.148-25.195 9.477-37.977 37.688-28.5 62.875zM368.968 900.922c5.375 11.875 15.055 20.945 27.258 25.531 5.648 2.125 11.445 3.133 17.149 3.133 19.742 0 38.375-12.070 45.735-31.609 9.477-25.188-3.305-53.399-28.492-62.875-5.563-2.086-11.344-3.148-17.188-3.148-20.211 0-38.563 12.711-45.672 31.617 0 0.008 0 0.008-0.008 0.008-4.594 12.211-4.156 25.469 1.219 37.344zM229.007 790.757c7.016 10.984 17.891 18.586 30.625 21.391 12.727 2.805 25.797 0.484 36.781-6.539 10.984-7.016 18.586-17.891 21.391-30.617s0.484-25.781-6.539-36.774c-9-14.117-24.391-22.539-41.18-22.539-9.289 0-18.359 2.656-26.219 7.672-22.68 14.484-29.344 44.727-14.859 67.407zM176.522 582.256c-0.867 13 3.383 25.563 11.969 35.375 8.594 9.805 20.484 15.688 33.5 16.555 13 0.867 25.57-3.383 35.375-11.969 9.813-8.586 15.688-20.477 16.563-33.477 1.781-26.859-18.602-50.164-45.352-51.946-1.148-0.070-2.281-0.117-3.422-0.117-25.563 0-46.922 20.024-48.633 45.578zM225.515 385.373c-4.945 12.063-4.891 25.328 0.141 37.352s14.445 21.367 26.508 26.305c12.063 4.953 25.336 4.906 37.367-0.133 12.023-5.031 21.367-14.445 26.305-26.516 10.203-24.899-1.75-53.461-26.656-63.664-5.922-2.43-12.141-3.664-18.477-3.664-19.899 0-37.633 11.898-45.188 30.32zM520.547 111.856c-1.367-0.109-2.734-0.164-4.078-0.164-25.18 0-46.516 19.703-48.578 44.86-2.164 26.828 17.875 50.422 44.695 52.594 12.984 1.063 25.617-3 35.555-11.438s15.992-20.242 17.047-33.234c2.188-26.828-17.852-50.43-44.641-52.617zM567.836 220.888c-16.133 13.703-36.633 20.297-57.719 18.57-28.625-2.32-52.5-19.688-64.492-43.695-3.688 2.117-7.383 4.422-11.070 6.867 7.203 12.117 11.125 26.078 11.125 40.492 0 19.211-6.969 37.742-19.625 52.172-15.039 17.188-36.781 27.047-59.641 27.047-11.617 0-22.984-2.563-33.352-7.391-5.094 8.227-10.070 16.75-14.906 25.5 28.188 21.102 39.789 59.391 25.828 93.461-8.023 19.578-23.188 34.867-42.711 43.039-13.266 5.555-27.453 7.359-41.336 5.438-2.75 9.703-5.234 19.305-7.43 28.727 32.156 11.813 54.156 43.766 51.766 79.641-1.406 21.109-10.945 40.414-26.875 54.344-9.367 8.203-20.289 13.945-31.984 17.008 1.703 8.555 3.82 17.016 6.32 25.344 5.984-1.43 12.133-2.195 18.352-2.195 27.227 0 52.203 13.68 66.813 36.586 11.398 17.828 15.164 39.024 10.609 59.688-2.641 11.969-7.898 22.906-15.305 32.227 6.5 5.813 13.273 11.32 20.266 16.484 14.813-17.781 37.086-28.711 60.953-28.711 9.516 0 18.899 1.719 27.899 5.094 32.461 12.219 52.203 43.602 51.274 76.477 15.906 1.359 31.984 1.359 47.891 0-0.938-32.875 18.813-64.258 51.281-76.477 8.992-3.375 18.375-5.094 27.891-5.094 23.867 0 46.141 10.93 60.953 28.711 6.992-5.164 13.758-10.672 20.266-16.484-7.406-9.32-12.664-20.258-15.305-32.227-4.555-20.664-0.789-41.86 10.602-59.68 14.617-22.914 39.602-36.602 66.821-36.602 6.219 0 12.367 0.773 18.352 2.203 2.508-8.336 4.625-16.813 6.328-25.367-32.102-8.492-56.571-36.774-58.86-71.266-0.125-1.695-0.188-3.508-0.188-5.398 0-33.828 21.563-63.117 51.946-74.313-2.188-9.422-4.68-19.024-7.43-28.727-13.875 1.922-28.070 0.117-41.336-5.438-19.516-8.172-34.688-23.453-42.703-43.039-8.023-19.578-7.945-41.11 0.227-60.625 5.547-13.25 14.375-24.484 25.586-32.844-4.828-8.742-9.797-17.25-14.883-25.461-11.938 5.57-25.149 8.086-38.649 7.188-21.117-1.406-40.422-10.945-54.367-26.867-13.938-15.93-20.844-36.328-19.438-57.438 0.836-12.656 4.617-24.649 10.93-35.242-3.664-2.43-7.336-4.711-11.008-6.82-4.719 9.5-11.344 18.024-19.664 25.094zM703.36 210.966c-9.266-10.578-22.664-16.649-36.75-16.649-11.82 0-23.227 4.289-32.133 12.070-9.805 8.586-15.688 20.484-16.547 33.492-0.867 13.008 3.391 25.578 11.977 35.391 8.586 9.805 20.484 15.688 33.492 16.547 1.102 0.078 2.203 0.109 3.305 0.109 11.82 0 23.102-4.227 32.086-12.086 9.805-8.586 15.688-20.484 16.547-33.492 0.867-13.008-3.391-25.578-11.977-35.383zM807.571 385.373c-7.555-18.414-25.289-30.32-45.188-30.32-6.336 0-12.555 1.234-18.492 3.672-12.055 4.945-21.469 14.281-26.5 26.305-5.039 12.031-5.086 25.297-0.148 37.36 4.945 12.063 14.289 21.477 26.313 26.508 6.070 2.539 12.453 3.813 18.844 3.813 6.273 0 12.547-1.227 18.524-3.68 24.899-10.195 36.852-38.758 26.649-63.656z" />
<glyph unicode="&#xe90c;" glyph-name="rip" d="M891.999 96.001v484c0 101.104-39.636 196.419-111.608 268.391s-167.287 111.608-268.391 111.608c-71.574 0-141.447-20.256-202.065-58.576-9.336-5.904-12.12-18.258-6.218-27.594 5.904-9.334 18.258-12.124 27.594-6.218 54.212 34.272 116.694 52.388 180.689 52.388 187.475 0 339.999-152.523 339.999-339.999v-484h-679.997v484c0 64.008 18.116 126.49 52.388 180.691 5.902 9.336 3.122 21.69-6.214 27.594-9.342 5.906-21.692 3.12-27.594-6.214-38.324-60.612-58.58-130.485-58.58-202.071v-484c-44.112 0-80-35.888-80-80v-60.002c0-11.044 8.956-20 20-20h879.997c11.044 0 20 8.956 20 20v60.002c0 44.112-35.888 80-80 80zM931.998-24h-839.997v40.002c0 22.056 17.944 40 40 40h759.997c22.056 0 40-17.944 40-40v-40.002zM332.001 236.001v-80c0-11.044 8.956-20 20-20h319.999c11.044 0 20 8.956 20 20v80c0 11.044-8.956 20-20 20h-319.999c-11.044 0-20-8.956-20-20zM372.001 216.001h279.999v-40h-279.999v40zM472.008 316.003c0-11.044 8.956-20 20-20h119.992c11.044 0 20 8.956 20 20s-8.956 20-20 20h-119.992c-11.046 0-20-8.956-20-20zM432.016 316.003c0 11.044-8.956 20-20 20h-0.016c-11.044 0-19.992-8.956-19.992-20s8.962-20 20.008-20 20 8.956 20 20zM257.441 814.563c5.122 0 10.244 1.954 14.15 5.86 7.81 7.81 7.81 20.474 0 28.286-7.812 7.808-20.472 7.808-28.286 0l-0.010-0.010c-7.81-7.81-7.804-20.468 0.006-28.28 3.906-3.904 9.022-5.856 14.14-5.856zM450.71 584.899c0 38.242-31.114 69.356-69.356 69.356h-49.356c-11.044 0-20-8.956-20-20v-166.249c0-11.044 8.956-20 20-20s20 8.956 20 20v47.54h17.81l33.22-57.54c3.706-6.416 10.426-10.004 17.34-10.004 3.392 0 6.832 0.866 9.98 2.684 9.566 5.524 12.844 17.754 7.32 27.32l-25.776 44.644c22.972 11.314 38.818 34.962 38.818 62.25zM352.001 614.255h29.356c16.188 0 29.356-13.168 29.356-29.356s-13.168-29.356-29.356-29.356h-29.356v58.712zM512.002 448.006c11.044 0 20 8.956 20 20v166.249c0 11.044-8.956 20-20 20s-20-8.956-20-20v-166.249c0-11.046 8.954-20 20-20zM642.645 654.255h-49.356c-11.044 0-20-8.956-20-20v-166.249c0-11.044 8.956-20 20-20s20 8.956 20 20v47.54h29.356c38.242 0 69.356 31.114 69.356 69.356s-31.114 69.354-69.356 69.354zM642.645 555.544h-29.356v58.71h29.356c16.188 0 29.356-13.168 29.356-29.356s-13.168-29.354-29.356-29.354zM691.985 488.008c-11.044 0-19.992-8.956-19.992-20s8.962-20 20.008-20 20 8.956 20 20-8.956 20-20 20h-0.016z" />
<glyph unicode="&#xe90d;" glyph-name="student" d="M701.484 661.539c12.25 4.086 20.516 15.547 20.516 28.461v210h122v-210c0-16.57 13.43-30 30-30s30 13.43 30 30v240c0 16.57-13.43 30-30 30h-722c-16.57 0-30-13.43-30-30s13.43-30 30-30h150v-210c0-12.914 8.266-24.375 20.516-28.461l180-60c3.078-1.023 6.281-1.539 9.484-1.539s6.406 0.516 9.484 1.539zM362 711.625v188.375h300v-188.375l-150-50zM150-64h724c82.711 0 150 67.289 150 150 0 16.57-13.43 30-30 30h-30v454c0 16.57-13.43 30-30 30h-844c-16.57 0-30-13.43-30-30v-454h-30c-16.57 0-30-13.43-30-30 0-82.711 67.289-150 150-150zM874-4h-724c-39.109 0-72.477 25.102-84.859 60.023h893.719c-12.383-34.922-45.75-60.023-84.859-60.023zM120 540h784v-424h-784z" />
<glyph unicode="&#xe90e;" d="M584.617 520.805v352.484l-145.234 0.984v-353.469l-302.57-302.57 94.633-110.75 207.938 207.938v-293.547h145.234v293.547l207.945-207.953 94.625 110.766z" />
<glyph unicode="&#xe90f;" d="M874.039 810.039c-96.703 96.703-225.273 149.961-362.039 149.961s-265.336-53.258-362.039-149.961c-96.703-96.703-149.961-225.281-149.961-362.039s53.258-265.336 149.961-362.039c96.703-96.703 225.273-149.961 362.039-149.961s265.336 53.258 362.039 149.961c96.703 96.703 149.961 225.281 149.961 362.039s-53.258 265.336-149.961 362.039zM512 76.055c-205.094 0-371.945 166.852-371.945 371.945s166.852 371.945 371.945 371.945 371.945-166.852 371.945-371.945-166.852-371.945-371.945-371.945z" />
<glyph unicode="&#xe910;" d="M584.617 520.805v352.484l-72.617 0.492v-851.906h72.617v293.547l207.945-207.953 94.625 110.766z" />
<glyph unicode="&#xe911;" d="M874.039 810.039c-96.703 96.703-225.281 149.961-362.039 149.961v-140.055c205.094 0 371.945-166.852 371.945-371.945s-166.852-371.945-371.945-371.945v-140.055c136.758 0 265.336 53.258 362.039 149.961s149.961 225.281 149.961 362.039-53.258 265.336-149.961 362.039z" />
<glyph unicode="&#xe912;" glyph-name="heart" d="M824.142 180.701c-46.722-45.287-220.32-91.603-339.217-88.602-19.57 0.49-25.623 30.276 1.475 30.749 55.69 0.976 64.632-4.329 181.144 21.268 30.669 6.734 58.52 11.72 75.554 25.080 26.38 20.679 22.154 70.249-24.953 79.86-56.128 11.453-139.035-1.157-190.379-1.157-51.34 0-71.078 35.987-145.077 31.067-109.479-7.277-132.099-18.328-179.515-27.521v4.497c0 22.419-17.358 40.6-38.765 40.6h-47.002c-21.411 0-38.765-18.181-38.765-40.6v-224.807c0-22.417 17.354-40.596 38.765-40.596h47.009c21.407 0 38.765 18.179 38.765 40.596v4.015c37.46-24.004 169.296-100.726 321.728-99.129 180.646 1.902 414.46 154.219 420.163 216.974s-74.21 72.997-120.93 27.706zM906.593 905.461h-47.009c-21.409 0-38.765-18.179-38.765-40.596v-4.015c-37.46 24.004-169.296 100.731-321.728 99.125-180.646-1.902-414.456-154.219-420.163-216.97-5.703-62.748 74.212-72.991 120.932-27.706 46.722 45.287 220.318 91.603 339.211 88.607 19.572-0.492 25.625-30.274-1.471-30.751-55.692-0.981-64.634 4.325-181.146-21.272-30.669-6.734-58.52-11.72-75.556-25.077-26.384-20.677-22.154-70.247 24.955-79.862 56.128-11.453 139.037 1.155 190.379 1.155 51.34 0 71.078-35.983 145.079-31.063 109.479 7.28 132.099 18.328 179.515 27.521v-4.497c0-22.422 17.356-40.6 38.765-40.6h47.009c21.411 0 38.765 18.179 38.765 40.6v224.807c-0.006 22.417-17.36 40.596-38.772 40.596zM596.452 587.658c-27.228 0-51.906-10.866-69.984-28.476-18.078 17.611-42.755 28.476-69.984 28.476-55.416 0-100.339-44.921-100.339-100.337 0-21.51 6.793-41.423 18.318-57.756 4.59-7.181 10.106-13.711 16.388-19.416l104.083-104.241c10.422-10.424 20.847-20.847 31.271-20.847 0.086 0 0.175 0.015 0.261 0.015s0.175-0.015 0.261-0.015c10.424 0 20.847 10.424 31.269 20.847l104.083 104.241c6.282 5.705 11.798 12.231 16.388 19.416 11.529 16.337 18.318 36.248 18.318 57.756 0.006 55.418-44.917 100.337-100.333 100.337z" />
<glyph unicode="&#xe913;" glyph-name="law" d="M972.912 338.982l-298.326 271.92 48.178 48.178c3.394-2.328 7.338-3.506 11.292-3.506 5.12 0 10.236 1.954 14.142 5.858l54.268 54.268c7.81 7.81 7.81 20.474 0 28.286l-210.158 210.158c-7.812 7.808-20.472 7.808-28.286 0l-54.268-54.268c-6.92-6.92-7.696-17.646-2.352-25.434l-207.11-207.112c-7.79 5.342-18.512 4.568-25.434-2.352l-54.268-54.268c-7.81-7.81-7.81-20.474 0-28.286l210.158-210.16c3.752-3.75 8.838-5.858 14.142-5.858s10.392 2.108 14.142 5.858l54.268 54.27c6.92 6.92 7.696 17.646 2.352 25.434l48.178 48.176 271.924-298.324c3.682-4.038 8.856-6.396 14.318-6.522 0.154-0.004 0.308-0.006 0.462-0.006 5.298 0 10.386 2.104 14.142 5.858l108.904 108.904c3.864 3.866 5.978 9.142 5.852 14.606-0.124 5.466-2.482 10.64-6.52 14.322zM578.166 911.716l181.874-181.874-25.982-25.982-181.872 181.874 25.98 25.982zM444.89 414.694l-181.874 181.876 25.982 25.982 181.874-181.874-25.982-25.984zM487.616 480.504l-158.792 158.792 206.616 206.612 158.792-158.792-206.616-206.612zM851.204 244.25l-259.060 284.21 54.128 54.126 284.212-259.058-79.28-79.278zM771.694 94.462v26.248c0 43.712-35.562 79.276-79.276 79.276h-493.142c-43.712 0-79.276-35.562-79.276-79.276v-26.248c-41.936-2.012-75.436-36.76-75.436-79.184 0-43.712 35.564-79.278 79.278-79.278h644.010c43.714 0 79.278 35.564 79.278 79.278-0.002 42.424-33.502 77.172-75.436 79.184zM767.852-24h-644.010c-21.658 0-39.278 17.62-39.278 39.278 0 21.656 17.618 39.276 39.278 39.276h16.158c0.066 0 0.13 0.010 0.196 0.010 0.026 0 0.052-0.004 0.080-0.004h430.86c11.046 0 20 8.954 20 20 0 11.044-8.954 20-20 20h-411.136v26.15c0 21.656 17.62 39.276 39.276 39.276h493.142c21.656 0 39.276-17.62 39.276-39.276v-46.156c0-11.046 8.956-20 20-20h16.158c21.658 0 39.278-17.62 39.278-39.276-0.002-21.658-17.62-39.278-39.278-39.278zM668.938 68.002c-0.256 1.28-0.638 2.54-1.138 3.74-0.5 1.22-1.12 2.38-1.84 3.46-0.718 1.1-1.558 2.12-2.478 3.040s-1.942 1.76-3.040 2.48c-1.080 0.72-2.24 1.34-3.46 1.84-1.202 0.5-2.46 0.88-3.74 1.14-2.58 0.52-5.24 0.52-7.82 0-1.26-0.26-2.52-0.64-3.74-1.14-1.2-0.5-2.36-1.12-3.44-1.84-1.102-0.72-2.122-1.56-3.042-2.48-3.74-3.72-5.86-8.878-5.86-14.14 0-1.318 0.12-2.62 0.378-3.92 0.262-1.26 0.64-2.52 1.14-3.738 0.5-1.202 1.12-2.362 1.84-3.442 0.74-1.1 1.58-2.12 2.5-3.040s1.94-1.76 3.042-2.5c1.080-0.72 2.24-1.34 3.44-1.84 1.22-0.5 2.48-0.88 3.74-1.14 1.298-0.26 2.618-0.38 3.92-0.38 1.298 0 2.62 0.122 3.9 0.38 1.28 0.26 2.54 0.64 3.74 1.14 1.218 0.5 2.38 1.12 3.46 1.84 1.1 0.74 2.122 1.58 3.040 2.5 0.92 0.92 1.76 1.94 2.478 3.040 0.72 1.080 1.34 2.24 1.84 3.442 0.5 1.218 0.88 2.478 1.14 3.738 0.26 1.3 0.4 2.602 0.4 3.92 0 1.3-0.14 2.602-0.4 3.9zM445.846 344.456c-11.046 0-20-8.954-20-20v-38.832c0-11.044 8.954-20 20-20 11.044 0 20 8.956 20 20v38.832c0 11.046-8.956 20-20 20zM332.81 271.312l-35.744 35.742c-7.812 7.808-20.476 7.808-28.286 0-7.81-7.81-7.81-20.474 0-28.286l35.744-35.742c3.908-3.904 9.024-5.858 14.144-5.858s10.238 1.954 14.142 5.858c7.81 7.81 7.81 20.474 0 28.286zM622.91 307.054c-7.812 7.808-20.472 7.808-28.286 0l-35.742-35.742c-7.81-7.81-7.81-20.474 0-28.286 3.906-3.904 9.024-5.858 14.142-5.858s10.238 1.954 14.144 5.858l35.742 35.742c7.81 7.81 7.81 20.474 0 28.286z" />
<glyph unicode="&#xe914;" glyph-name="cancel" d="M874.038 810.039c-199.945 199.945-524.132 199.945-724.077 0s-199.945-524.124 0-724.077c199.945-199.945 524.124-199.945 724.077 0 199.953 199.953 199.953 524.132 0 724.077zM511.999 63.922c-102.586 0-199.039 39.945-271.586 112.492-72.547 72.539-112.492 168.992-112.492 271.586 0 77.258 22.664 151.023 64.828 213.726l532.976-532.976c-62.703-42.164-136.469-64.828-213.726-64.828zM831.186 234.336l-532.913 532.913c62.703 42.172 136.476 64.836 213.726 64.836 102.594 0 199.047-39.953 271.593-112.5 131.695-131.703 147.547-336.031 47.594-485.249z" />
<glyph unicode="&#xe915;" glyph-name="law-1" d="M621.679 86.955h-67.918v622.434h286.23l-121.242-192.385c-6.148-9.755-3.223-22.653 6.534-28.799 3.459-2.182 7.306-3.217 11.113-3.217 6.934 0 13.715 3.453 17.684 9.746l105.149 166.854 105.145-166.854c6.151-9.755 19.049-12.68 28.801-6.529 9.755 6.146 12.675 19.044 6.529 28.799l-121.237 192.385h1.532c17.873 0 32.365 14.492 32.365 32.365 0 17.871-14.49 32.363-32.365 32.363h-238.093c-13.446 19.558-33.289 34.366-56.52 41.396-3.319 37.623-34.898 67.13-73.385 67.13-38.489 0-70.066-29.507-73.387-67.13-23.231-7.030-43.075-21.838-56.518-41.396h-238.093c-17.875 0-32.367-14.492-32.367-32.363 0-17.873 14.49-32.365 32.367-32.365h1.532l-121.242-192.385c-6.148-9.755-3.223-22.653 6.531-28.799 3.459-2.182 7.308-3.217 11.113-3.217 6.932 0 13.717 3.453 17.686 9.746l105.149 166.854 105.147-166.854c6.148-9.755 19.044-12.68 28.799-6.529 9.757 6.146 12.68 19.044 6.534 28.799l-121.239 192.385h286.23v-622.429h-67.916c-40.646 0-73.599-32.955-73.599-73.601h366.55c0 40.646-32.953 73.597-73.597 73.597zM318.408 462.783h-307.278c-6.146 0-11.13-4.982-11.13-11.13 0-90.853 73.915-164.768 164.771-164.768 90.853 0 164.771 73.915 164.771 164.768-0.002 6.146-4.986 11.13-11.133 11.13zM1012.87 462.783h-307.278c-6.146 0-11.13-4.982-11.13-11.13 0-90.853 73.915-164.768 164.773-164.768 90.853 0 164.768 73.915 164.768 164.768-0.002 6.146-4.986 11.13-11.133 11.13z" />
<glyph unicode="&#xe916;" glyph-name="pin" d="M512 960c-198.504 0-360-161.496-360-360 0-67.068 18.578-132.52 53.738-189.304l285.77-460.514c5.474-8.822 15.118-14.182 25.49-14.182 0.080 0 0.158 0 0.238 0 10.462 0.082 20.126 5.608 25.5 14.584l278.486 464.976c33.22 55.584 50.778 119.362 50.778 184.44 0 198.504-161.496 360-360 360zM769.732 446.364l-253.188-422.736-259.81 418.68c-29.266 47.264-45.134 101.792-45.134 157.692 0 165.42 134.98 300.4 300.4 300.4s300.2-134.98 300.2-300.4c0-54.242-14.822-107.376-42.468-153.636zM512 780c-99.252 0-180-80.748-180-180 0-98.618 79.434-180 180-180 101.806 0 180 82.466 180 180 0 99.252-80.748 180-180 180zM512 479.6c-66.514 0-120.4 54.066-120.4 120.4 0 66.168 54.232 120.4 120.4 120.4s120.2-54.232 120.2-120.4c0-65.366-52.632-120.4-120.2-120.4z" />
<glyph unicode="&#xe917;" glyph-name="time" d="M615.437 27.319c-8.444-2.104-17.053-3.973-25.598-5.547-22.338-4.154-37.106-25.637-32.974-47.995 2.041-10.999 8.288-20.161 16.769-26.141 8.741-6.152 19.866-8.93 31.202-6.822 10.176 1.889 20.432 4.11 30.495 6.621 22.058 5.49 35.497 27.836 29.994 49.884-5.49 22.067-27.817 35.494-49.888 30zM919.854 579.088c2.884-8.69 8.389-15.785 15.342-20.687 10.31-7.262 23.802-9.705 36.676-5.448 21.585 7.167 33.28 30.443 26.139 52.017-3.253 9.835-6.863 19.701-10.709 29.307-8.444 21.11-32.389 31.387-53.509 22.943-21.099-8.439-31.38-32.391-22.93-53.507 3.231-8.074 6.258-16.362 8.99-24.625zM749.202 86.093c-7.262-4.794-14.757-9.434-22.307-13.782-19.699-11.363-26.445-36.542-15.087-56.232 3.084-5.356 7.191-9.734 11.922-13.080 12.699-8.935 29.945-10.273 44.304-2.001 8.977 5.177 17.902 10.685 26.551 16.403 18.961 12.527 24.18 38.068 11.647 57.038-12.531 18.977-38.061 24.189-57.029 11.653zM1023.608 464.115c-0.896 22.721-20.033 40.405-42.761 39.518-22.699-0.896-40.396-20.040-39.505-42.752 0.341-8.684 0.429-17.497 0.229-26.172-0.319-14.248 6.65-26.949 17.48-34.583 6.452-4.543 14.281-7.293 22.771-7.486 22.721-0.504 41.55 17.517 42.054 40.249 0.227 10.365 0.141 20.867-0.269 31.226zM913.136 194.386c-18.219 13.669-43.995 9.958-57.641-8.228-5.226-6.965-10.729-13.843-16.364-20.467-14.726-17.301-12.646-43.289 4.656-58.026 0.986-0.836 1.983-1.605 3.018-2.327 17.2-12.126 41.105-9.34 55.012 6.98 6.729 7.902 13.289 16.119 19.533 24.438 13.647 18.186 9.954 43.98-8.215 57.63zM973.647 343.194c-21.693 6.802-44.794-5.274-51.592-26.967-2.602-8.288-5.485-16.615-8.598-24.77-6.835-17.953-0.286-37.707 14.726-48.292 2.754-1.935 5.787-3.575 9.082-4.821 21.239-8.105 45.023 2.551 53.119 23.799 3.696 9.696 7.125 19.604 10.227 29.457 6.791 21.697-5.276 44.792-26.965 51.594zM435.836 21.402c-36.804 6.608-72.109 17.861-105.587 33.555-0.396 0.207-0.751 0.442-1.167 0.632-7.889 3.713-15.765 7.691-23.399 11.847-0.026 0.031-0.075 0.051-0.117 0.068-14.006 7.713-27.676 16.247-40.956 25.596-193.644 136.409-240.204 404.929-103.787 598.571 29.663 42.091 65.561 77.207 105.581 105.039 0.493 0.343 0.986 0.685 1.475 1.030 141.025 97.17 332.514 103.719 482.26 3.868l-32.162-46.47c-8.941-12.934-3.44-22.36 12.212-20.951l139.704 12.507c15.673 1.409 25.045 14.966 20.83 30.101l-37.515 135.167c-4.2 15.153-14.953 16.967-23.903 4.035l-32.237-46.58c-109.893 73.769-241.699 101.898-372.523 79.213-13.176-2.28-26.168-5.072-38.981-8.321-0.099-0.018-0.178-0.029-0.258-0.046-0.495-0.121-0.997-0.282-1.479-0.416-112.812-28.97-211.239-94.766-281.472-188.643-0.592-0.702-1.202-1.389-1.761-2.153-2.335-3.146-4.653-6.364-6.923-9.582-3.711-5.274-7.37-10.68-10.87-16.086-0.438-0.652-0.773-1.314-1.156-1.972-57.958-89.811-85.913-193.642-81.119-299.348 0.011-0.348-0.009-0.698 0-1.054 0.464-10.326 1.283-20.795 2.395-31.101 0.059-0.665 0.207-1.294 0.319-1.959 1.149-10.363 2.591-20.751 4.398-31.136 18.367-105.962 68.352-201.311 143.252-275.503 0.174-0.174 0.354-0.363 0.53-0.544 0.062-0.068 0.13-0.103 0.189-0.167 20.123-19.848 42.012-38.206 65.58-54.806 61.678-43.461 130.357-72.188 204.115-85.424 22.38-4.022 43.758 10.876 47.773 33.245 4.013 22.384-10.872 43.78-33.245 47.788zM486.739 776.864c-18.409 0-33.32-14.924-33.32-33.306v-331.825l303.48-156.882c4.884-2.529 10.115-3.72 15.261-3.72 12.054 0 23.696 6.564 29.615 18.017 8.442 16.346 2.054 36.428-14.292 44.869l-267.462 138.275v291.265c-0.002 18.382-14.896 33.306-33.282 33.306z" />
<glyph unicode="&#xe918;" glyph-name="mail" d="M932.564 45.713c23.018 0 42.963 7.6 59.918 22.607l-290.116 290.127c-6.961-4.984-13.707-9.831-20.080-14.44-21.711-15.996-39.332-28.478-52.863-37.422-13.529-8.965-31.529-18.102-53.998-27.431-22.484-9.34-43.431-13.996-62.863-13.996h-1.138c-19.433 0-40.38 4.653-62.863 13.996-22.482 9.329-40.483 18.467-53.998 27.431-13.529 8.944-31.14 21.425-52.863 37.422-6.053 4.438-12.767 9.307-20.025 14.518l-290.171-290.205c16.953-15.007 36.911-22.607 59.927-22.607h841.132zM57.72 541.14c-21.709 14.473-40.96 31.049-57.72 49.721v-441.404l255.707 255.707c-51.156 35.714-117.068 80.987-197.986 135.977zM966.858 541.14c-77.833-52.68-143.984-98.032-198.462-136.079l255.604-255.616v441.415c-16.388-18.296-35.433-34.861-57.142-49.721zM932.564 850.287h-841.13c-29.345 0-51.905-9.909-67.71-29.707-15.817-19.807-23.713-44.578-23.713-74.285 0-23.996 10.478-49.996 31.425-78.007 20.947-28 43.236-49.994 66.856-65.992 12.949-9.149 51.998-36.296 117.148-81.432 35.169-24.371 65.754-45.614 92.036-63.945 22.403-15.609 41.723-29.127 57.674-40.345 1.831-1.285 4.711-3.345 8.533-6.077 4.118-2.958 9.329-6.711 15.758-11.354 12.38-8.954 22.665-16.191 30.856-21.72 8.18-5.531 18.091-11.709 29.718-18.569 11.618-6.851 22.575-12.003 32.86-15.429 10.287-3.425 19.809-5.142 28.569-5.142h1.138c8.758 0 18.283 1.718 28.571 5.142 10.283 3.426 21.231 8.567 32.858 15.429 11.616 6.86 21.514 13.051 29.72 18.569 8.191 5.529 18.476 12.765 30.858 21.72 6.416 4.642 11.627 8.398 15.745 11.344 3.824 2.744 6.702 4.791 8.545 6.087 12.426 8.647 31.791 22.109 57.826 40.187 47.374 32.916 117.144 81.363 209.602 145.535 27.807 19.422 51.039 42.86 69.71 70.281 18.638 27.42 27.982 56.183 27.982 86.279 0 25.145-9.060 46.66-27.14 64.581-18.1 17.898-39.534 26.851-64.296 26.851z" />
<glyph unicode="&#xe919;" glyph-name="phone" d="M809.301 62.259l-55.74 55.74c181.931 181.931 181.931 478.003 0 659.934l55.706 55.74c212.651-212.719 212.651-558.694 0.034-771.413zM712.977 737.417l-55.74-55.671c128.887-128.887 128.887-338.603 0-467.49l55.808-55.671c159.471 159.505 159.471 419.294-0.068 578.833zM613.581 637.986l-55.74-55.774c74.069-74.001 74.069-194.594 0-268.595l55.74-55.74c104.755 104.823 104.755 275.388 0 380.109zM66.15 671.744c-5.871-72.533-9.25-145.169-10.547-217.873h-0.341c0.034-1.98 0.171-3.891 0.171-5.871 0-2.014-0.137-3.925-0.171-5.837h0.375c1.297-72.704 4.676-145.408 10.547-217.907 15.189-189.781 164.318-315.802 310.545-283.102 6.417 1.297 13.107 1.365 19.149 3.823 35.601 14.814 65.092 42.359 97.963 62.703 41.916 26.283-48.435 249.173-104.414 220.399-20.685-10.786-77.824-53.009-100.796-56.183-20.514-2.867-36.557 24.269-38.605 49.323-5.359 66.15-0.512 150.665-0.102 220.911h0.102c0 1.877-0.034 3.891-0.034 5.837s0.034 3.994 0.034 5.837h-0.137c-0.41 70.246-5.257 154.761 0.102 220.911 2.048 25.088 18.091 52.258 38.605 49.323 22.972-3.174 80.111-45.397 100.796-56.183 55.979-28.774 146.295 194.185 104.414 220.399-32.87 20.378-62.362 47.957-97.963 62.703-6.042 2.526-12.766 2.56-19.149 3.857-146.227 32.734-295.322-93.321-310.545-283.068z" />
<glyph unicode="&#xe91a;" glyph-name="mail-1" d="M98.284 602.281c12.953-9.141 52-36.289 117.142-81.429 65.144-45.141 115.048-79.898 149.715-104.274 3.809-2.672 11.901-8.48 24.28-17.433 12.381-8.959 22.669-16.198 30.855-21.72 8.192-5.52 18.095-11.713 29.72-18.568 11.62-6.849 22.574-12.001 32.86-15.411 10.288-3.439 19.81-5.142 28.571-5.142h1.151c8.76 0 18.287 1.705 28.575 5.142 10.282 3.41 21.246 8.568 32.856 15.411 11.616 6.863 21.52 13.050 29.712 18.568 8.192 5.522 18.471 12.761 30.857 21.72 12.377 8.961 20.479 14.761 24.288 17.433 35.042 24.376 124.193 86.283 267.425 185.716 27.808 19.42 51.041 42.853 69.705 70.283 18.678 27.418 28.006 56.181 28.006 86.273 0 25.146-9.053 46.672-27.15 64.575-18.095 17.907-39.527 26.856-64.281 26.856h-841.144c-29.331 0-51.904-9.903-67.713-29.71-15.808-19.81-23.711-44.573-23.711-74.284 0-24 10.48-50.007 31.429-78.005 20.947-28 43.24-50.003 66.855-66zM966.85 541.144c-124.939-84.564-219.809-150.284-284.562-197.146-21.714-15.994-39.329-28.479-52.857-37.425-13.528-8.953-31.519-18.095-53.999-27.424-22.472-9.343-43.416-14-62.848-14h-1.157c-19.428 0-40.383 4.657-62.856 14-22.472 9.329-40.476 18.471-53.999 27.424-13.52 8.947-31.141 21.432-52.853 37.425-51.432 37.712-146.097 103.436-283.999 197.146-21.72 14.467-40.958 31.049-57.72 49.712v-453.701c0-25.158 8.949-46.672 26.856-64.577 17.903-17.911 39.431-26.864 64.575-26.864h841.146c25.138 0 46.664 8.953 64.569 26.864 17.911 17.911 26.856 39.417 26.856 64.577v453.701c-16.384-18.277-35.426-34.859-57.152-49.712z" />
<glyph unicode="&#xe91b;" glyph-name="pin-1" d="M512 960c-204.49 0-370.854-166.364-370.854-370.852 0-253.776 331.878-626.334 346.008-642.070 13.272-14.782 36.444-14.756 49.692 0 14.13 15.736 346.008 388.294 346.008 642.070-0.004 204.488-166.366 370.852-370.854 370.852zM512 402.562c-102.884 0-186.584 83.702-186.584 186.586s83.702 186.584 186.584 186.584 186.582-83.702 186.582-186.586-83.7-186.584-186.582-186.584z" />
<glyph unicode="&#xe91c;" glyph-name="phone-1" d="M883.657 442.64h-52.225c0 170.437-138.619 309.024-308.962 309.024l-0.031 52.162c199.214 0.094 361.218-161.973 361.218-361.187zM522.439 713.733l-0.031-52.162c120.782 0 218.9-98.212 218.837-218.9l52.225 0.031c0 149.434-121.503 271.031-271.031 271.031zM512 960c-282.348 0-512-229.652-512-512.031 0-282.316 229.652-511.969 512-511.969 17.461 0 31.567 14.106 31.567 31.536 0 17.523-14.106 31.661-31.567 31.661-247.52 0-448.835 201.377-448.835 448.772 0 247.52 201.314 448.866 448.835 448.866s448.803-201.377 448.803-448.866c0-103.416-55.046-205.891-133.823-249.339-28.62-15.736-59.654-23.542-92.757-23.856 19.874 11.818 37.084 27.805 49.874 47.93 2.508 3.793 5.831 7.147 7.461 11.254 10.282 24.733 11.191 52.789 17.398 78.933 7.617 33.354-146.017 98.525-159.371 56.865-4.828-15.423-12.226-64.2-21.912-77.052-8.621-11.473-29.874-6.019-43.166 5.266-35.015 29.843-74.106 73.698-108.4 108.369l0.063 0.031c-0.878 0.909-1.944 1.912-2.884 2.884-0.972 0.909-1.944 1.944-2.915 2.884v-0.063c-34.67 34.357-78.557 73.353-108.369 108.431-11.285 13.291-16.74 34.545-5.266 43.166 12.853 9.749 61.629 17.022 77.052 21.912 41.567 13.291-23.511 167.020-56.927 159.371-26.081-6.113-54.137-7.116-78.871-17.335-4.201-1.787-7.461-5.016-11.254-7.523-87.742-55.611-99.058-190.656-13.417-291.282 32.633-38.495 66.676-75.736 101.723-112.099l-0.188-0.125c0.972-0.972 1.975-1.881 2.978-2.821 0.94-0.972 1.85-1.944 2.759-2.978l0.188 0.188c36.363-35.047 79.466-86.676 149.497-133.384 147.428-98.463 260.561-70.971 327.206-34.42 115.046 63.353 166.518 198.681 166.518 304.667 0 282.504-229.684 512.157-512 512.157z" />
<glyph unicode="&#xe91d;" glyph-name="mail-2" d="M921.6 857.6h-819.2c-56.32 0-102.4-46.080-102.4-102.4v-614.4c0-56.32 46.080-102.4 102.4-102.4h819.2c56.32 0 102.4 46.080 102.4 102.4v614.4c0 56.32-46.080 102.4-102.4 102.4zM921.6 652.8l-409.6-256-409.6 256v102.4l409.6-256 409.6 256v-102.4z" />
<glyph unicode="&#xe91e;" glyph-name="book" d="M625.277 341.175c92.534 37.581 152.506 128.115 151.019 227.978 0 137.252-118.579 248.913-264.332 248.913s-264.332-111.66-264.332-248.913c-1.487-99.862 58.483-190.396 151.019-227.978l2.049-1.11 13.994-22.962c-24.984-14.461-33.513-46.437-19.054-71.418 1.901-3.284 4.154-6.353 6.721-9.15-19.591-21.477-18.065-54.767 3.41-74.361 9.756-8.899 22.501-13.807 35.705-13.75h140.977c29.070-0.128 52.739 23.336 52.866 52.406 0.057 13.206-4.85 25.951-13.75 35.705 19.514 21.272 18.087 54.336-3.185 73.848-2.798 2.566-5.864 4.82-9.15 6.721l13.994 22.962 2.049 1.11zM582.451 183.668h-140.977c-9.732 0-17.622 7.89-17.622 17.622s7.89 17.622 17.622 17.622h140.977c9.732 0 17.622-7.89 17.622-17.622s-7.89-17.622-17.622-17.622zM582.451 254.157h-140.977c-9.732 0-17.622 7.89-17.622 17.622s7.89 17.622 17.622 17.622h140.977c9.732 0 17.622-7.89 17.622-17.622s-7.89-17.622-17.622-17.622zM609.281 372.597l-7.047-3.828c-2.727-1.487-5.016-3.665-6.635-6.315l-23.043-37.808h-7.727v133.681l82.947 82.947-24.918 24.92-88.111-88.111c-3.304-3.304-5.161-7.785-5.163-12.459v-140.977h-35.244v140.977c-0.002 4.674-1.859 9.155-5.163 12.459l-88.111 88.111-24.918-24.918 82.947-82.947v-133.681h-7.727l-23.043 37.808c-1.619 2.65-3.908 4.828-6.635 6.315l-7.047 3.828c-0.566 0.302-1.145 0.575-1.738 0.817-79.672 32.052-131.366 109.87-130.032 195.736 0 117.813 102.763 213.668 229.088 213.668s229.088-95.856 229.088-213.668c1.335-85.866-50.362-163.683-130.032-195.736-0.593-0.245-1.174-0.518-1.738-0.819zM134.011 784.677l15.761 31.522 105.726-52.863-15.761-31.522-105.726 52.863zM764.224 772.026l112.133 37.401 11.151-33.433-112.133-37.401-11.151 33.433zM71.409 588.977h105.733v-35.244h-105.733v35.244zM846.783 588.977h105.733v-35.244h-105.733v35.244zM134.013 322.807l105.726 52.863 15.761-31.522-105.726-52.863-15.761 31.522zM768.404 344.084l15.761 31.522 105.726-52.863-15.761-31.522-105.726 52.863zM494.34 941.42h35.244v-88.111h-35.244v88.111zM1023.004 113.18v35.244c-229.905 0-474.214-55.576-475.789-158.599h-70.506c-1.575 103.023-245.884 158.599-475.789 158.599v-35.244c258.162 0 438.432-64.792 440.459-123.355h-440.459v-35.244h1022.084v35.244h-440.459c2.027 58.563 182.297 123.355 440.459 123.355zM-0.008 25.072l1.854 35.195 334.88-17.639-1.854-35.195-334.88 17.639zM687.217 42.626l334.88 17.673 1.857-35.195-334.88-17.673-1.857 35.195z" />
<glyph unicode="&#xe91f;" glyph-name="ring-1" d="M319.756 50.766c72.197 0 138.673 24.348 192.245 64.857 53.588-40.528 120.046-64.857 192.243-64.857 176.329 0 319.758 143.425 319.758 319.738 0 176.329-143.427 319.756-319.758 319.756-72.197 0-138.671-24.348-192.243-64.855-53.588 40.526-120.047 64.855-192.245 64.855-176.329-0.002-319.756-143.427-319.756-319.756 0-176.294 143.427-319.738 319.756-319.738zM511.999 499.704c24.909-36.935 39.468-81.404 39.468-129.201s-14.559-92.266-39.468-129.201c-24.911 36.935-39.47 81.404-39.47 129.201s14.577 92.266 39.47 129.201zM704.261 602.234c127.776 0 231.731-103.955 231.731-231.731 0-127.774-103.955-231.713-231.731-231.713-47.92 0-92.495 14.629-129.483 39.645 40.438 53.555 64.732 119.941 64.732 192.068s-24.294 138.533-64.732 192.085c36.988 25.018 81.563 39.646 129.483 39.646zM319.756 602.234c47.92 0 92.495-14.629 129.483-39.646-40.438-53.553-64.732-119.959-64.732-192.085s24.294-138.513 64.732-192.068c-36.988-25.016-81.563-39.645-129.483-39.645-127.774 0-231.731 103.939-231.731 231.713-0.002 127.776 103.955 231.731 231.731 231.731zM505.821 816.643h-0.352c0 0-48.66 53.29-91.123 14.365s-5.317-128.603 91.123-167.527l0.352-0.335c96.422 38.925 133.585 128.938 91.121 167.861-42.461 38.927-91.121-14.364-91.121-14.364z" />
<glyph unicode="&#xe920;" glyph-name="comment" d="M672 416h-320c-17.664 0-32-14.336-32-32s14.336-32 32-32h320c17.664 0 32 14.336 32 32s-14.336 32-32 32zM736 608h-448c-17.664 0-32-14.336-32-32s14.336-32 32-32h448c17.664 0 32 14.336 32 32s-14.336 32-32 32zM512 960c-282.751 0-512-200.575-512-448 0-141.409 75.040-267.296 192-349.408v-226.592l224.288 136.097c31.041-5.122 62.976-8.097 95.712-8.097 282.785 0 512 200.575 512 448s-229.215 448-512 448zM512 128c-37.376 0-73.472 4.352-108.161 11.744l-150.657-90.559 2.016 148.415c-115.486 69.471-191.199 184.287-191.199 314.4 0 212.063 200.575 384 448 384s448-171.937 448-384-200.575-384-448-384z" />
<glyph unicode="&#xe921;" glyph-name="muslim" d="M878.602 25.068l-88.771 63.415c-11.236 8.024-24.483 12.274-38.932 12.274-12.060 0-23.214-3.493-32.951-9.161v42.112h-88.244c33.676 27.201 55.293 68.77 55.293 115.33 0 129.054-62.311 251.42-166.669 327.307l-13.675 9.951c20.199 30.991 32.062 67.913 32.062 107.587 0 78.326-45.045 147.672-115.594 179.783 0.033 0.659 0.264 1.269 0.264 1.928 0 15.603-8.32 30.299-21.715 38.356l-76.76 46.050-198.088-108.048v-100.288c0-9.638 3.905-19.079 10.742-25.916 2.323-2.323 4.926-4.135 7.661-5.701-1.153-8.666-1.928-17.398-1.928-26.163 0-109.020 88.689-197.709 197.709-197.709 0.758 0 1.483 0.099 2.241 0.115l-203.047-304.57c-8.749-13.131-13.378-28.421-13.378-44.204 0-41.305 31.699-74.965 71.966-78.919-3.888-10.709-6.063-22.045-6.063-33.742 0-54.518 44.336-98.854 98.854-98.854h560.505c27.086 0 49.098 22.028 49.098 49.098 0 15.817-7.694 30.777-20.578 39.97zM407.807 843.549c58.588-26.855 95.955-84.521 95.955-149.666 0-21.040-4.119-41.090-11.335-59.593l-87.519 37.499v30.332c0 31.798-25.867 57.665-57.665 57.665-28.997 0-53.068-21.517-57.072-49.427h-115.050c0.264 2.686 0.692 5.338 1.087 7.991 0.824 0.362 1.697 0.527 2.504 0.956l218.995 116.796c3.773 2.027 7.134 4.547 10.1 7.447zM158.859 749.045c-0.692 0.708-1.087 1.648-1.087 2.62v80.715l164.378 89.644 60.565-36.329c3.526-2.109 5.717-5.981 5.717-10.1 0-4.366-2.389-8.353-6.228-10.396l-218.995-116.813c-1.433-0.758-3.18-0.494-4.35 0.659zM322.529 578.554v-48.587c-40.679 4.053-76.925 23.066-103.468 51.305 12.241 3.246 23.544 9.391 32.737 18.585 13.741 13.741 21.303 31.996 21.303 51.421v9.655h-32.951v-9.655c0-10.627-4.135-20.611-11.665-28.124-7.496-7.513-17.481-11.648-28.108-11.648h-3.839c-11.484 19.771-19.079 42.063-21.451 65.903h147.441v24.714c0 13.625 11.088 24.714 24.714 24.714s24.714-11.088 24.714-24.714v-52.047l105.478-45.209c-26.542-41.123-70.78-69.808-121.953-74.899v48.587h-32.951zM206.886 100.757h-2.356c-25.785 0-46.758 20.974-46.758 46.758 0 9.259 2.718 18.222 7.859 25.933l79.71 119.564 84.949-48.538-84.867-123.436c-8.732-12.703-23.132-20.282-38.537-20.282zM684.995-31.049h-395.418c-36.345 0-65.903 29.557-65.903 65.903 0 14.037 4.399 27.35 12.587 38.619 14.499 5.75 27.218 15.668 36.296 28.898l162.385 236.196-27.152 18.667-58.802-85.509-85.361 48.785 120.767 181.151c39.064 9.226 73.614 30.052 99.925 58.67l14.598-10.61c95.889-69.725 153.125-182.139 153.125-300.682 0-63.58-51.734-115.33-115.33-115.33h-82.379v-32.951h230.66v-131.806zM850.082-31.049h-132.135v65.903c0 18.173 14.779 32.951 33.594 32.951 6.903 0 13.527-2.125 19.161-6.129l88.771-63.415c4.218-3.015 6.755-7.941 6.755-13.164 0-8.913-7.249-16.146-16.146-16.146z" />
<glyph unicode="&#xe922;" glyph-name="course" d="M921.6 558.504v299.096c-0.030 28.264-22.936 51.17-51.2 51.2h-17.066c-0.030 28.264-22.936 51.17-51.2 51.2h-290.134c-19.682-0.064-38.364-8.674-51.2-23.592-12.836 14.918-31.518 23.528-51.2 23.592h-290.134c-28.264-0.030-51.17-22.936-51.2-51.2h-17.066c-28.264-0.030-51.17-22.936-51.2-51.2v-631.466c0.030-28.264 22.936-51.17 51.2-51.2h563.2v-85.334c0.098-84.79 68.81-153.502 153.6-153.6h102.4c84.79 0.098 153.502 68.81 153.6 153.6v324.266c-0.114 65.016-41.116 122.93-102.4 144.638zM853.334 874.666h17.066c9.42-0.012 17.054-7.646 17.066-17.066v-291.14c-5.666 0.652-11.364 0.988-17.066 1.006h-17.066v307.2zM170.666 925.866h102.4v-224.416l-37.876 47.342c-3.236 4.050-8.14 6.408-13.324 6.408s-10.088-2.358-13.324-6.408l-37.876-47.342v224.416zM102.4 908.8c0.012 9.42 7.646 17.054 17.066 17.066h17.066v-273.066c-0.004-7.25 4.574-13.708 11.416-16.108 6.84-2.4 14.45-0.214 18.976 5.45l54.942 68.674 54.942-68.674c3.236-4.052 8.14-6.41 13.324-6.408 4.528-0.004 8.87 1.794 12.072 4.994 3.202 3.202 4.998 7.544 4.994 12.072v273.066h102.4c18.844-0.018 34.114-15.29 34.134-34.134v-556.68c-10.688 6.814-23.084 10.47-35.758 10.548h-305.574v563.2zM102.4 311.466h305.576c18.782-0.658 34.038-15.386 35.356-34.134h-340.932v34.134zM614.4 209.066h-563.2c-9.42 0.012-17.054 7.646-17.066 17.066v631.468c0.012 9.42 7.646 17.054 17.066 17.066h17.066v-614.4c0-9.426 7.64-17.066 17.066-17.066h529.068v-34.134zM614.4 277.334h-136.132c1.342 18.768 16.634 33.496 35.44 34.134h100.692v-34.134zM614.4 345.6h-100.692c-12.704-0.076-25.13-3.742-35.842-10.572v556.706c0.018 18.844 15.29 34.114 34.134 34.134h290.134c9.42-0.012 17.054-7.646 17.066-17.066v-341.334h-51.2c-84.79-0.098-153.502-68.81-153.6-153.6v-68.268zM802.134 533.334v-221.866h-153.6v102.4c0.074 65.948 53.518 119.392 119.466 119.466h34.134zM989.866 89.6c-0.074-65.948-53.518-119.392-119.466-119.466h-102.4c-65.948 0.074-119.392 53.518-119.466 119.466v187.734h341.334v-187.734zM989.866 311.466h-153.6v221.868h34.134c65.948-0.074 119.392-53.518 119.466-119.466v-102.402z" />
<glyph unicode="&#xe923;" glyph-name="time-1" d="M1022.026 400.699c-9.194 92.477-50.509 179.661-116.338 245.492-56.257 56.255-125.114 92.405-197.567 108.48v50.817c29.592 7.362 51.589 34.149 51.589 65.987 0 37.497-30.504 68.001-68.001 68.001h-144.002c-37.497 0-68.001-30.504-68.001-68.001 0-31.836 21.996-58.623 51.587-65.987v-50.959c-72.231-16.142-140.86-52.243-196.957-108.34-12.276-12.276-23.596-25.154-33.959-38.539-0.502 0.038-1.004 0.076-1.516 0.076h-142.524c-11.044 0-20-8.954-20-20s8.956-20 20-20h116.826c-14.664-24.55-26.488-50.333-35.489-76.873h-217.673c-11.044 0-20-8.954-20-20s8.956-20 20-20h206.371c-5.764-25.302-9.072-51.053-9.926-76.875h-88.443c-11.044 0-20-8.954-20-20s8.956-20 20-20h89.081c1.688-25.888 5.85-51.641 12.488-76.875h-129.57c-11.044 0-20-8.954-20-20s8.956-20 20-20h142.334c19.62-51.903 50.283-100.55 91.999-142.266 65.893-65.893 153.166-107.218 245.74-116.364 13.212-1.304 26.434-1.95 39.639-1.95 78.045 0 155.098 22.586 220.479 65.163 9.256 6.028 11.874 18.418 5.846 27.674s-18.418 11.874-27.674 5.846c-143.116-93.195-334.785-73.045-455.745 47.915-141.926 141.926-141.926 372.856 0 514.784 141.924 141.924 372.854 141.924 514.782 0 120.8-120.802 141.060-312.307 48.173-455.353-6.016-9.264-3.382-21.652 5.88-27.666 9.268-6.016 21.652-3.382 27.666 5.882 49.629 76.431 71.969 168.743 62.905 259.934zM519.706 871.473c0 15.44 12.56 28 28 28h144.002c15.44 0 28-12.56 28-28s-12.56-28-28-28h-144.002c-15.44 0-28 12.562-28 28zM571.293 761.405v42.067h96.828v-41.995c-32.153 3.824-64.681 3.8-96.828-0.072zM891.554 108.987c-5.28 0-10.42-2.14-14.138-5.86-3.74-3.72-5.862-8.88-5.862-14.14s2.122-10.42 5.862-14.14c3.718-3.74 8.86-5.86 14.138-5.86 5.26 0 10.4 2.12 14.14 5.86 3.72 3.72 5.86 8.88 5.86 14.14s-2.138 10.42-5.86 14.14c-3.74 3.72-8.882 5.86-14.14 5.86zM620.012 670.777c-171.079 0-310.263-139.182-310.263-310.263s139.184-310.263 310.263-310.263 310.263 139.182 310.263 310.263-139.184 310.263-310.263 310.263zM620.012 90.252c-149.024 0-270.262 121.24-270.262 270.262s121.238 270.262 270.262 270.262 270.262-121.24 270.262-270.262-121.238-270.262-270.262-270.262zM746.526 515.313l-99.062-99.060c-8.284 4.096-17.602 6.41-27.452 6.41-9.852 0-19.168-2.314-27.452-6.41l-44.335 44.335c-7.812 7.81-20.472 7.81-28.286 0-7.81-7.81-7.81-20.474 0-28.284l44.335-44.335c-4.098-8.284-6.41-17.602-6.41-27.452 0-34.269 27.878-62.149 62.149-62.149s62.149 27.88 62.149 62.149c0 9.85-2.314 19.168-6.41 27.452l99.060 99.060c7.81 7.81 7.81 20.474 0 28.284s-20.47 7.81-28.284 0zM620.012 338.366c-12.212 0-22.148 9.936-22.148 22.148s9.936 22.148 22.148 22.148 22.148-9.936 22.148-22.148-9.936-22.148-22.148-22.148zM833.853 380.271h-18.53c-11.044 0-20-8.954-20-20s8.956-20 20-20h18.53c11.044 0 20 8.954 20 20s-8.956 20-20 20zM424.699 380.759h-18.528c-11.044 0-20-8.954-20-20s8.956-20 20-20h18.528c11.044 0 20 8.954 20 20s-8.956 20-20 20zM620.256 535.827c11.044 0 20 8.954 20 20v18.528c0 11.046-8.956 20-20 20s-20-8.954-20-20v-18.528c0-11.046 8.956-20 20-20zM619.768 185.202c-11.044 0-20-8.954-20-20v-18.528c0-11.046 8.956-20 20-20s20 8.954 20 20v18.528c0 11.046-8.956 20-20 20zM20 257.109c-5.26 0-10.42-2.14-14.14-5.86s-5.86-8.88-5.86-14.14c0-5.28 2.138-10.42 5.86-14.14s8.88-5.86 14.14-5.86 10.42 2.14 14.138 5.86c3.72 3.72 5.862 8.88 5.862 14.14s-2.14 10.42-5.862 14.14c-3.718 3.72-8.878 5.86-14.138 5.86z" />
<glyph unicode="&#xe924;" glyph-name="male" d="M512 459.197c113.851 0 206.155 112.108 206.155 250.4 0 138.296-30.305 250.403-206.155 250.403s-206.16-112.108-206.16-250.403c0-138.293 92.303-250.4 206.16-250.4zM122.614 76.864c-0.035 8.432-0.070 2.376 0 0v0zM901.369 70.279c0.111 2.308 0.038 16.015 0 0v0zM900.93 86.976c-3.818 240.909-35.281 309.555-276.047 353.008 0 0-33.891-43.186-112.886-43.186s-112.892 43.186-112.892 43.186c-238.139-42.979-271.515-110.607-275.904-345.182-0.36-19.155-0.527-20.161-0.591-17.938 0.015-4.166 0.032-11.873 0.032-25.31 0 0 57.321-115.554 389.354-115.554 332.028 0 389.354 115.554 389.354 115.554 0 8.634 0.006 14.637 0.015 18.722-0.064-1.375-0.193 1.29-0.436 16.7z" />
<glyph unicode="&#xe925;" glyph-name="star" d="M512.010 934.945l158.199-320.581 353.791-51.421-256.005-249.522 60.432-352.365-316.418 166.355-316.437-166.355 60.432 352.365-256.005 249.522 353.791 51.421z" />
<glyph unicode="&#xe926;" glyph-name="arrow" d="M800.34 471.604l-478.15 478.129c-6.843 6.835-14.717 10.267-23.604 10.267-8.891 0-16.761-3.432-23.6-10.267l-51.294-51.305c-6.85-6.839-10.26-14.695-10.26-23.6s3.411-16.761 10.26-23.6l403.238-403.238-403.238-403.245c-6.85-6.839-10.26-14.709-10.26-23.59 0-8.902 3.411-16.772 10.26-23.611l51.298-51.287c6.839-6.846 14.709-10.257 23.6-10.257 8.887 0 16.758 3.418 23.6 10.257l478.125 478.132c6.835 6.835 10.257 14.709 10.257 23.6s-3.396 16.761-10.232 23.615z" />
<glyph unicode="&#xe927;" glyph-name="clock" d="M537.6 934.4c-179.2 0-337.92-97.28-419.84-245.76l-117.76 117.76v-332.8h332.8l-143.36 143.36c66.56 128 194.56 215.040 348.16 215.040 209.92 0 384-174.080 384-384s-174.080-384-384-384c-168.96 0-307.2 107.52-363.52 256h-107.52c56.32-204.8 245.76-358.4 471.040-358.4 271.36 0 486.4 220.16 486.4 486.4s-220.16 486.4-486.4 486.4zM460.8 678.4v-261.12l240.64-143.36 40.96 66.56-204.8 122.88v215.040h-76.8z" />
<glyph unicode="&#xe928;" glyph-name="user" d="M874.040 298.040c-55.766 55.764-122.142 97.046-194.562 122.036 77.564 53.422 128.522 142.828 128.522 243.924 0 163.214-132.786 296-296 296s-296-132.786-296-296c0-101.096 50.958-190.502 128.524-243.924-72.42-24.99-138.796-66.272-194.562-122.036-96.704-96.706-149.962-225.28-149.962-362.040h80c0 238.206 193.794 432 432 432s432-193.794 432-432h80c0 136.76-53.258 265.334-149.96 362.040zM512 448c-119.102 0-216 96.896-216 216s96.898 216 216 216c119.102 0 216-96.896 216-216s-96.898-216-216-216z" />
<glyph unicode="&#xe929;" glyph-name="blog" d="M510 556c22.094 0 40-17.906 40-40s-17.906-40-40-40-40 17.906-40 40 17.906 40 40 40zM650 516c0-22.094 17.906-40 40-40s40 17.906 40 40-17.906 40-40 40-40-17.906-40-40zM290 516c0-22.094 17.906-40 40-40s40 17.906 40 40-17.906 40-40 40-40-17.906-40-40zM988.828 140.875c46.813-46.813 46.813-122.938 0.023-169.727-23.391-23.391-54.125-35.094-84.852-35.094s-61.461 11.703-84.852 35.094l-219.578 219.086c-4.664 4.656-8.102 10.383-10.016 16.695l-47.828 157.445c-4.242 13.961-0.547 29.117 9.641 39.563 10.188 10.438 25.25 14.5 39.313 10.609l161.445-44.719c6.648-1.844 12.703-5.367 17.586-10.242zM663.18 239.781l148.18-147.852 56.578 56.578-147.305 147.023-81.219 22.5zM932.281 84.281l-7.719 7.711-56.57-56.57 7.695-7.672c15.625-15.633 41-15.633 56.594-0.031 15.602 15.594 15.602 40.969 0 56.563zM534.25 131.094c-7.391-0.32-14.875-0.484-22.25-0.484-64.32 0-126.242 11.977-184.039 35.594-9.844 4.016-20.891 3.953-30.688-0.18l-182.133-76.883 61.367 145.367c6 14.211 3.289 30.617-6.977 42.148-58.57 65.797-89.531 144.523-89.531 227.648 0 207.156 193.797 375.695 432 375.695s432-168.539 432-375.695c0-49.125-12.063-98.445-35.859-146.578-9.789-19.805-1.672-43.797 18.133-53.586s43.797-1.672 53.586 18.133c29.289 59.258 44.141 120.5 44.141 182.031 0 251.273-229.68 455.695-512 455.695-282.313 0-512-204.422-512-455.695 0-94.844 32.156-184.664 93.273-261.266l-90.125-213.484c-6.328-14.992-2.938-32.328 8.57-43.836 7.656-7.656 17.883-11.719 28.289-11.719 5.242 0 10.531 1.031 15.547 3.148l257.859 108.852c62.891-23.492 129.617-35.391 198.586-35.391 8.531 0 17.195 0.195 25.75 0.563 22.070 0.969 39.18 19.641 38.211 41.711-0.961 22.070-19.672 39.234-41.711 38.211z" />
<glyph unicode="&#xe92a;" glyph-name="null-1" d="M270.803 644.678c2.626-16.007 8.816-26.074 14.881-32.514 14.444-96.291 95.103-185.704 168.697-185.704 85.849 0 164.008 96.729 179.139 185.517 6.128 6.315 12.443 16.507 15.131 32.639 4.877 18.070 11.255 49.459 0.125 64.090-0.625 0.75-1.251 1.438-1.813 2.126 10.379 37.891 23.573 116.175-23.448 169.51-4.127 5.377-30.388 36.766-86.725 53.398l-26.699 9.316c-44.269 13.693-72.156 16.695-73.281 16.882-1.938 0.188-4.064 0-6.003-0.5-1.563-0.438-6.753-1.813-10.88-1.313-10.567 1.501-26.449-3.939-29.263-5.002-3.752-1.438-89.413-35.828-115.424-115.612-2.439-6.503-12.818-40.392 1-123.615-2.063-1.376-3.939-3.064-5.502-5.19-11.13-14.631-4.877-45.957 0.063-64.027zM304.443 826.13c0.188 0.375 0.313 0.813 0.5 1.313 21.197 65.778 96.354 96.166 96.854 96.416 3.439 1.313 10.129 3.189 13.693 3.189 7.378-1 15.882 0.313 20.509 1.376 7.566-1.063 31.076-4.877 64.277-15.131l27.012-9.254c50.084-14.819 71.343-42.581 71.468-42.768 0.375-0.438 0.75-0.813 1-1.188 43.456-48.958 21.134-129.993 13.193-153.628-1.813-5.565-0.5-11.692 3.564-15.819 2.063-2.126 4.502-3.564 7.191-4.314 0.125-7.691-2.063-21.759-5.502-34.077-0.125-0.563-0.25-1.188-0.375-1.751-1.313-8.691-4.252-15.006-8.191-17.883-3.314-2.501-5.627-6.315-6.253-10.442-10.379-74.407-79.284-164.383-148.939-164.383-58.65 0-128.492 82.848-138.372 164.070-0.5 4.252-2.689 8.066-6.19 10.63-3.939 3.001-6.878 9.379-8.191 17.945-0.063 0.625-0.188 1.251-0.375 1.813-3.189 11.442-5.252 24.51-5.44 32.389 2.939 0.313 5.878 1.313 8.379 3.314 4.627 3.627 6.878 9.504 5.752 15.319-17.195 90.289-5.565 122.865-5.565 122.865zM764.327 374.562c-46.145 30.451-115.987 52.522-115.987 52.522-70.092 24.761-70.593 49.396-70.593 49.396-137.746-271.616-242.354-0.875-242.354-0.875-9.629-36.641-151.502-79.659-151.502-79.659-41.455-15.882-58.963-39.767-58.963-39.767-61.276-90.914-68.529-293.188-68.529-293.188 0.813-46.207 20.759-51.022 20.759-51.022 140.935-62.902 362.155-74.094 362.155-74.094 61.589-1.313 118.426 2.939 168.885 9.629-48.333 45.207-78.909 109.297-78.909 180.515-0.063 132.181 104.357 240.165 235.038 246.543zM767.14 337.046c-110.547 0-200.523-89.913-200.523-200.523 0-110.735 89.976-200.523 200.523-200.523 110.672 0 200.523 89.851 200.523 200.523 0 110.547-89.913 200.523-200.523 200.523zM753.947 37.919c-4.252-4.189-11.13-4.189-15.382 0l-96.479 97.229c-4.252 4.127-4.252 11.13 0 15.319l23.072 23.072c4.252 4.189 11.13 4.189 15.382 0l65.841-66.341 127.867 127.805c4.127 4.252 11.13 4.252 15.382 0l22.947-22.947c4.252-4.252 4.252-11.255 0-15.507l-158.63-158.63z" />
</font>
</defs>
</svg>
